<svg width="142" height="164" viewBox="0 0 142 164" fill="none" xmlns="http://www.w3.org/2000/svg">
<path fill-rule="evenodd" clip-rule="evenodd" d="M140.003 40.195L72.1737 0.987984C71.7327 0.727974 71.2303 0.590942 70.7186 0.590942C70.2068 0.590942 69.7044 0.727974 69.2634 0.987984L1.45518 40.195C1.01323 40.4518 0.646262 40.8203 0.390915 41.2636C0.135569 41.7069 0.000788767 42.2095 9.70688e-06 42.7213V121.177C-0.00131314 121.689 0.132594 122.193 0.38815 122.637C0.643706 123.08 1.01182 123.448 1.45518 123.704L69.2634 162.931C69.7081 163.18 70.2091 163.311 70.7186 163.311C71.228 163.311 71.729 163.18 72.1737 162.931L140.003 123.704C140.44 123.443 140.802 123.074 141.054 122.631C141.305 122.188 141.437 121.687 141.437 121.177V42.7163C141.438 42.2065 141.307 41.7052 141.055 41.262C140.804 40.8189 140.441 40.4544 140.003 40.195ZM28.3423 31.392L90.335 67.2429L70.7238 78.5776L8.75181 42.7318L28.3423 31.3867V31.392ZM45.2504 21.598L107.243 57.459L96.1868 63.8709L34.1941 28.0096L45.2504 21.598ZM99.1023 68.9286L110.159 62.5221V83.9674L104.638 83.9361C103.81 83.9361 102.981 84.2993 102.432 84.9321L99.1023 88.8123V68.9286ZM70.7186 6.90181L132.711 42.7213L129.791 44.4073L113.079 54.082L51.1073 18.221L70.7186 6.90181ZM5.83625 47.7793L67.7979 83.6403V155.342L5.83625 119.481V47.7793ZM135.622 119.481L73.629 155.342V83.6403L93.2609 72.2955V96.635C93.2589 97.0194 93.333 97.4002 93.4792 97.7556C93.6254 98.1109 93.8406 98.4338 94.1124 98.7051C94.3842 98.9764 94.707 99.1907 95.0623 99.3358C95.4175 99.481 95.798 99.5539 96.1816 99.5505C96.2645 99.5505 96.3007 99.452 96.4146 99.4261C96.7837 99.4161 97.1472 99.333 97.484 99.1816C97.8209 99.0303 98.1245 98.8138 98.3773 98.5443L105.954 89.7669L113.074 89.7929C113.851 89.7929 114.591 89.4711 115.135 88.9212C115.409 88.6548 115.626 88.3354 115.772 87.9821C115.918 87.6289 115.99 87.2493 115.984 86.867V59.1504L135.616 47.7793L135.622 119.481Z" fill="#71717A"/>
</svg>
